<?xml version="1.0" encoding="utf-8"?>
<!-- Generator: Adobe Illustrator 24.0.0, SVG Export Plug-In . SVG Version: 6.00 Build 0)  -->
<svg version="1.1" id="Layer_1" xmlns="http://www.w3.org/2000/svg" xmlns:xlink="http://www.w3.org/1999/xlink" x="0px" y="0px"
	 viewBox="0 0 723.29 548.43" style="enable-background:new 0 0 723.29 548.43;" xml:space="preserve">
<style type="text/css">
	.st0{fill:#EBBAB2;}
	.st1{fill:#CE897E;}
	.st2{fill:#1E2B34;}
	.st3{fill:#DDDAD1;}
	.st4{fill:#8A9B65;}
</style>
<g>
	<g>
		<g>
			<g>
				<polygon class="st0" points="270.08,341.73 270.08,341.73 290.71,359.46 				"/>
			</g>
			<g>
				<path class="st0" d="M330.57,271.38c16.18-18.81,14.04-47.18-4.77-63.36l72.89,62.68c9.61,8.26,10.7,22.75,2.44,32.36l0,0
					c-8.26,9.61-22.75,10.7-32.36,2.44l-38.83-33.39L330.57,271.38z"/>
			</g>
			<g>
				<path class="st0" d="M368.76,305.5C368.76,305.5,368.76,305.5,368.76,305.5l20.08,17.27c9.61,8.26,10.7,22.75,2.44,32.36l0,0
					c-8.26,9.61-22.75,10.7-32.36,2.44l-58.91-50.65l29.92-34.8L368.76,305.5z"/>
			</g>
			<g>
				<polygon class="st0" points="329.93,272.12 329.93,272.12 368.76,305.5 368.76,305.5 				"/>
			</g>
			<g>
				<path class="st0" d="M290.71,359.46l-20.63-17.74l29.92-34.8l43.36,37.28c9.61,8.26,10.7,22.75,2.44,32.36l0,0
					c-8.26,9.61-22.75,10.7-32.36,2.44l-16.2-13.93c0,0,0,0,0,0L290.71,359.46z"/>
			</g>
			<g>
				<path class="st0" d="M269.45,342.46l0.63-0.74l20.63,17.74l6.54,5.62c9.61,8.26,10.7,22.75,2.44,32.36l0,0
					c-8.26,9.61-22.75,10.7-32.36,2.44l-61.24-52.65C224.91,363.42,253.27,361.28,269.45,342.46z"/>
			</g>
			<g>
				<polygon class="st0" points="297.25,365.09 297.25,365.09 290.71,359.46 				"/>
			</g>
			<g>
				<path class="st0" d="M125.94,219.07l61.12-71.08c16.18-18.81,44.54-20.95,63.36-4.78l75.38,64.81c0,0,0,0,0,0l-3.73-3.21
					c-9.61-8.26-24.1-7.17-32.36,2.44v0c-8.26,9.61-7.17,24.1,2.44,32.36c-9.61-8.26-24.1-7.17-32.36,2.44l0,0
					c-8.26,9.61-7.17,24.1,2.44,32.36c-9.61-8.26-24.1-7.17-32.36,2.44l0,0c-8.26,9.61-7.17,24.1,2.44,32.36l37.79,32.5l0,0
					l-37.79-32.5c-9.61-8.26-24.1-7.17-32.36,2.44l0,0c-8.26,9.61-7.17,24.1,2.44,32.36l3.73,3.2c0,0,0,0,0,0l-75.38-64.81
					C111.9,266.26,109.76,237.89,125.94,219.07z"/>
			</g>
			<g>
				<polygon class="st0" points="300.01,306.92 300.01,306.92 262.21,274.43 				"/>
			</g>
			<g>
				<path class="st0" d="M330.57,271.38l-0.63,0.74l-37.79-32.5c-9.61-8.26-10.7-22.75-2.44-32.36v0
					c8.26-9.61,22.75-10.7,32.36-2.44l3.73,3.21C344.61,224.2,346.74,252.57,330.57,271.38z"/>
			</g>
			<g>
				<path class="st0" d="M259.78,242.06L259.78,242.06c8.26-9.61,22.75-10.7,32.36-2.44l37.79,32.5l-29.92,34.8l-37.79-32.5
					C252.6,266.16,251.51,251.67,259.78,242.06z"/>
			</g>
			<g>
				<polygon class="st0" points="329.93,272.12 292.14,239.62 329.93,272.12 				"/>
			</g>
			<g>
				<path class="st0" d="M232.29,309.23c-9.61-8.26-10.7-22.75-2.44-32.36l0,0c8.26-9.61,22.75-10.7,32.36-2.44l37.79,32.5
					l-29.92,34.8L232.29,309.23z"/>
			</g>
			<g>
				<path class="st0" d="M199.93,311.67L199.93,311.67c8.26-9.61,22.75-10.7,32.36-2.44l37.79,32.5l-0.63,0.74
					c-16.18,18.81-44.54,20.95-63.36,4.78l-3.73-3.2C192.75,335.77,191.66,321.28,199.93,311.67z"/>
			</g>
		</g>
	</g>
	<g>
		<path class="st1" d="M387.76,220.84l97.29-76.08c9.82-7.68,24.01-5.95,31.69,3.88l3.64,4.66c7.68,9.82,5.95,24.01-3.88,31.69
			l-97.29,76.08c-9.82,7.68-24.01,5.95-31.69-3.88l-3.64-4.66C376.2,242.71,377.94,228.52,387.76,220.84z"/>
	</g>
	<g>
		<g>
			<path class="st2" d="M543.96,343.07L376.24,200.62c-0.07-0.06-0.15-0.12-0.23-0.18l171.97,147.09
				C546.87,345.91,545.53,344.4,543.96,343.07z"/>
		</g>
		<g>
			<path class="st2" d="M512.53,378.29l10.02-11.79l-4.61-3.9C518.16,368.13,516.39,373.75,512.53,378.29z"/>
		</g>
		<g>
			<path class="st2" d="M547.99,347.53c0,0-4.83,0.82-6.38,1.14c-6.37,1.33-4.16,2.42-11.37,8.77c-4.91,4.32-7.69,9.06-7.69,9.06
				l1.51-1.78l17.03,1.93L424.21,503.04l-21.86,4.98l-2.01,2.37l0.88,0.74c9.61,8.16,24.02,6.99,32.19-2.62l113.18-133.26
				C553.41,367.21,553.7,355.82,547.99,347.53z"/>
		</g>
		<g>
			<path class="st2" d="M230.88,336.5l107.16-126.17l-19.65-16.63c-5.28,0.79-10.3,3.41-14.03,7.8L191.19,334.75
				c-8.16,9.61-6.99,24.02,2.62,32.19l173.36,147.24c9.61,8.16,24.02,6.99,32.19-2.62l0.99-1.16L233.5,368.69
				C223.89,360.53,222.72,346.11,230.88,336.5z"/>
		</g>
		<g>
			<path class="st2" d="M512.53,378.29c3.86-4.55,5.63-10.17,5.41-15.69l-179.9-152.27L230.88,336.5
				c-8.16,9.61-6.99,24.02,2.62,32.19l166.84,141.7l2.01-2.37L512.53,378.29z"/>
		</g>
		<g>
			<polygon class="st3" points="402.35,508.02 424.21,503.04 541.08,366.65 524.06,364.72 522.55,366.5 512.53,378.29 			"/>
		</g>
		<g>
			<polygon class="st2" points="547.99,347.53 547.99,347.53 547.99,347.53 			"/>
		</g>
		<g>
			<path class="st2" d="M336.55,198.87l6.52,5.54l0.99-1.16c8.1-9.54,22.35-10.76,31.96-2.8l-1.61-1.38c0,0-8.89-5.51-14.9-7.25
				c-6.96-2.02-14.21-2.47-22.88-1.77c-10.01,0.82-18.24,3.65-18.24,3.65l0,0C324.68,192.76,331.33,194.43,336.55,198.87z"/>
		</g>
		<g>
			<path class="st2" d="M344.06,203.25l-0.99,1.16l166.84,141.7c5.07,4.3,7.78,10.34,8.03,16.5l4.61,3.9c0,0,2.78-4.73,7.69-9.06
				c7.22-6.35,5-7.45,11.37-8.77c1.55-0.32,6.38-1.14,6.38-1.14v0L376.02,200.44C366.41,192.48,352.16,193.71,344.06,203.25z"/>
		</g>
		<g>
			<path class="st2" d="M343.07,204.41l-6.52-5.54c-5.23-4.44-11.87-6.11-18.16-5.17l19.65,16.63L343.07,204.41z"/>
		</g>
		<g>
			<path class="st2" d="M509.91,346.11l-166.84-141.7l-5.03,5.92l179.9,152.27C517.69,356.45,514.98,350.41,509.91,346.11z"/>
		</g>
	</g>
	<g>
		<g>
			<path class="st1" d="M411.42,294.64c-0.19-0.16-0.37-0.34-0.56-0.51l-0.98,0.82c-15.11,12.57-37.55,10.5-50.12-4.61l0,0
				c-0.66-0.8-1.28-1.62-1.86-2.46l-13.95,16.17c-8.28,9.6-7.22,24.09,2.38,32.37c9.6,8.28,24.09,7.22,32.37-2.38l33.46-38.77
				L411.42,294.64z"/>
		</g>
		<g>
			<path class="st1" d="M378.7,334.04C378.7,334.04,378.7,334.04,378.7,334.04l-17.31,20.05c-8.28,9.6-7.22,24.09,2.38,32.37l0,0
				c9.6,8.28,24.09,7.22,32.37-2.38l50.76-58.82l-34.75-29.99L378.7,334.04z"/>
		</g>
		<g>
			<polygon class="st1" points="412.15,295.27 378.7,334.04 378.7,334.04 			"/>
		</g>
		<g>
			<path class="st1" d="M481.65,355.26l-34.75-29.99l-37.37,43.29c-8.28,9.6-7.22,24.09,2.38,32.37v0
				c9.6,8.28,24.09,7.22,32.37-2.38l13.96-16.17l5.63-6.53L481.65,355.26z"/>
		</g>
		<g>
			<path class="st1" d="M482.38,355.89l-0.74-0.64l-17.78,20.6l-5.63,6.53c0,0,0,0,0,0c-8.28,9.6-7.22,24.09,2.38,32.37h0
				c9.6,8.28,24.09,7.22,32.37-2.38l52.77-61.13C529.54,370.02,501.17,372.1,482.38,355.89z"/>
		</g>
		<g>
			<polygon class="st1" points="463.87,375.85 458.24,382.38 458.24,382.38 			"/>
		</g>
		<g>
			<path class="st1" d="M606.05,212.61l-70.97-61.25c-8.25-7.12-18.35-10.71-28.46-10.91c7.23,1.72,13.99,5.71,19.11,11.86v0
				c12.57,15.11,10.5,37.55-4.61,50.12L464.3,249.7c4.57,0.44,9.05,2.24,12.79,5.47v0c9.6,8.28,10.66,22.77,2.38,32.37
				c8.28-9.6,22.77-10.66,32.37-2.38l0,0c9.6,8.28,10.66,22.77,2.38,32.37c8.28-9.6,22.77-10.66,32.37-2.38l0,0
				c9.59,8.28,10.66,22.77,2.38,32.37l61.74-71.53C626.92,257.2,624.83,228.83,606.05,212.61z"/>
		</g>
		<g>
			<polygon class="st1" points="545.75,351.23 546.88,349.93 545.75,351.23 			"/>
		</g>
		<g>
			<path class="st1" d="M411.42,294.64l0.74,0.64l6.78-7.85l-8.07,6.71C411.05,294.3,411.23,294.47,411.42,294.64z"/>
		</g>
		<g>
			<path class="st1" d="M477.09,255.16L477.09,255.16c-3.74-3.23-8.22-5.03-12.79-5.47l-45.36,37.72l-6.78,7.85l34.75,29.99
				l32.57-37.73C487.75,277.94,486.69,263.44,477.09,255.16z"/>
		</g>
		<g>
			<path class="st1" d="M514.22,317.52c8.28-9.6,7.22-24.09-2.38-32.37l0,0c-9.6-8.28-24.09-7.22-32.37,2.38l-32.57,37.73
				l34.75,29.99L514.22,317.52z"/>
		</g>
		<g>
			<path class="st1" d="M546.59,315.14L546.59,315.14c-9.6-8.28-24.09-7.22-32.37,2.38l-32.57,37.73l0.74,0.64
				c18.78,16.21,47.15,14.13,63.37-4.66l1.13-1.31l2.08-2.41C557.25,337.92,556.18,323.43,546.59,315.14z"/>
		</g>
		<g>
			<polygon class="st1" points="548.96,347.51 548.96,347.51 546.88,349.93 			"/>
		</g>
		<g>
			<path class="st1" d="M359.76,290.34c12.57,15.11,35.01,17.18,50.12,4.61l0.98-0.82c-18.26-16.29-20.15-44.27-4.1-62.86
				l-48.86,56.61C358.48,288.72,359.1,289.54,359.76,290.34L359.76,290.34z"/>
		</g>
		<g>
			<path class="st1" d="M471.71,156.02l-64.95,75.25c0,0,0,0,0,0l3.21-3.72c8.28-9.6,22.77-10.66,32.37-2.38
				c9.6,8.28,10.66,22.77,2.38,32.37c5.05-5.86,12.42-8.53,19.58-7.84l56.83-47.25c15.11-12.57,17.18-35.01,4.61-50.12v0
				c-5.12-6.16-11.88-10.15-19.11-11.86C493.72,140.21,480.81,145.49,471.71,156.02z"/>
		</g>
		<g>
			<path class="st1" d="M442.34,225.17c-9.6-8.28-24.09-7.22-32.37,2.38l-3.21,3.72c-16.05,18.59-14.16,46.57,4.1,62.86l8.07-6.71
				l25.79-29.88C453,247.95,451.94,233.45,442.34,225.17z"/>
		</g>
		<g>
			<path class="st1" d="M444.72,257.54l-25.79,29.88l45.36-37.72C457.14,249.01,449.78,251.69,444.72,257.54z"/>
		</g>
	</g>
	<g>
		<path class="st2" d="M361.68,348.37l-1.18-4.37c11.87-3.22,16.19-8.18,22.74-15.68c1.07-1.22,2.18-2.5,3.38-3.83
			c4.55-5.04,19.71-22.18,24.97-28.49c2.43-2.92,7.8-9.52,14.01-17.16c10.31-12.68,21.99-27.06,24.86-30.23l3.36,3.03
			c-2.79,3.09-14.94,18.04-24.7,30.05c-6.22,7.66-11.6,14.27-14.05,17.21c-5.39,6.47-20.39,23.43-25.09,28.63
			c-1.18,1.31-2.28,2.57-3.33,3.77C380.06,338.83,374.87,344.79,361.68,348.37z"/>
	</g>
	<g>
		<path class="st2" d="M399.58,387.71l-3.73-3.03c31.78-38.93,52.47-62.61,83.8-98.45l6.41-7.33l3.62,3.15l-6.41,7.33
			C451.98,325.19,431.3,348.84,399.58,387.71z"/>
	</g>
	<g>
		<path class="st2" d="M448.96,400.43l-3.43-2.9c12.91-15.65,25.34-29.91,37.37-43.69c12.43-14.25,25.28-28.98,38.59-45.19
			l3.44,2.89c-13.36,16.27-26.23,31.02-38.68,45.3C474.25,370.6,461.83,384.83,448.96,400.43z"/>
	</g>
	<g>
		<path class="st2" d="M391.97,220.72l-2.92-3.45c25.72-21.77,53.03-42.99,81.16-63.05l2.63,3.68
			C444.81,177.89,417.6,199.03,391.97,220.72z"/>
	</g>
	<g>
		<path class="st2" d="M549.25,354.08l-3.44-2.93c13.07-15.35,25.77-30.75,38.04-45.65c10.88-13.19,22.13-26.84,33.62-40.44
			l3.45,2.92c-11.48,13.58-22.72,27.21-33.59,40.4C575.05,323.28,562.34,338.7,549.25,354.08z"/>
	</g>
	<g>
		<path class="st0" d="M280.54,294.04l-77.75-99.43c-7.34-9.38-5.68-22.94,3.7-30.28l4.45-3.48c9.38-7.34,22.94-5.68,30.28,3.7
			l77.75,99.43c7.34,9.38,5.68,22.94-3.7,30.28l-4.45,3.48C301.43,305.08,287.88,303.42,280.54,294.04z"/>
	</g>
	<g>
		<path class="st4" d="M474.96,131.39l50.45-67.4c7.45-9.95,21.56-11.98,31.51-4.53l129.95,97.28c9.95,7.45,11.98,21.56,4.53,31.51
			l-50.45,67.4c-7.45,9.95-21.56,11.98-31.51,4.53L479.49,162.9C469.54,155.45,467.51,141.34,474.96,131.39z"/>
	</g>
	<g>
		<path class="st3" d="M99.46,264.92l-62.39-56.53c-9.21-8.35-9.91-22.58-1.57-31.79L144.49,56.29c8.35-9.21,22.58-9.91,31.79-1.57
			l62.39,56.53c9.21,8.35,9.91,22.58,1.57,31.79L131.26,263.35C122.91,272.56,108.68,273.26,99.46,264.92z"/>
	</g>
	<g>
		<path class="st2" d="M117.5,276.08c-5.27,0-10.84-2.99-13.19-4.25c-5.57-2.99-10.09-7.41-14.47-11.68l-0.24-0.24
			c-19.77-19.3-39.61-37.32-58.96-53.56l-0.23-0.22c-3.43-3.82-5.32-8.95-5.19-14.08c0.12-4.69,1.96-9.62,5.16-13.87l0.15-0.18
			c36.09-38.89,60.1-65.87,91.78-102.06c2.36-2.54,16.82-18.37,20.88-23l0.12-0.13c6.34-6.18,13.45-9.2,20.01-8.52
			c6.65,0.69,12.12,5,17.16,9.34c21.75,18.77,39.57,36.61,62.14,59.2l5.1,5.1c3.98,3.98,4.18,10.75,0.55,18.58
			c-2.17,4.68-9.54,12.81-14.42,18.19c-0.84,0.93-1.58,1.75-2.17,2.41c-3.37,3.79-7.12,8.05-11.22,12.69
			c-22.94,26.01-57.62,65.33-95.82,103.53l0,0C122.63,275.35,120.1,276.08,117.5,276.08z M33.69,203
			c19.4,16.28,39.28,34.35,59.08,53.68l0.24,0.24c4.15,4.05,8.43,8.24,13.44,10.93c7.36,3.95,12.55,4.74,15.01,2.28
			c38.1-38.1,72.72-77.35,95.62-103.32c4.1-4.65,7.86-8.91,11.23-12.71c0.6-0.67,1.35-1.5,2.2-2.44c4.12-4.54,11.79-13,13.67-17.05
			c1.32-2.84,3.99-9.84,0.36-13.48l-5.1-5.1c-22.5-22.52-40.28-40.31-61.9-58.97c-4.68-4.04-9.32-7.71-14.67-8.27
			c-6.97-0.73-13.2,4.17-16.33,7.2c-4.16,4.74-18.55,20.5-20.86,22.98C94.05,115.12,70.03,142.11,33.95,181
			c-2.6,3.48-4.09,7.45-4.19,11.17C29.66,196.11,31.09,200.04,33.69,203z"/>
	</g>
	<g>
		<circle class="st2" cx="670.23" cy="182.11" r="9.86"/>
	</g>
	<g>
		<circle class="st2" cx="635.41" cy="231.62" r="9.86"/>
	</g>
	<g>
		<path class="st2" d="M405.8,231.27c-0.38,0-0.8-0.14-1.25-0.49l1.3-1.75l-1.58-1.49l0.61-0.71
			c12.78-14.99,24.72-28.71,33.61-38.63l3.13,3.01c-8.87,9.9-20.78,23.59-33.54,38.55C407.55,230.36,406.78,231.27,405.8,231.27z"/>
	</g>
	<g>
		<path class="st2" d="M625.27,268.91c-6.82,0-13.27-4.34-19.82-9.2l-123.82-91.98c-4.36-3.24-9.3-6.91-12.44-12.09
			c-3.04-5.01-4.33-12.57-0.37-18.14l0,0c9.68-13.62,20.03-27.8,30.04-41.5c7.89-10.8,16.04-21.97,24.01-33.06
			c2.88-4,6.82-9.48,12.83-11.42c7.56-2.44,15.09,1.36,22.1,5.82c14.54,9.26,26.6,17.86,44.48,31.73
			c19.25,15.12,34.87,26.88,53.9,40.6l2.69,1.94c10.69,7.7,21.75,15.65,31.53,24.89c2.86,2.7,6.07,5.92,8.1,10.02
			c2.29,4.63,2.52,9.76,0.61,13.71l-0.18,0.3c-8.17,11.83-16.96,24.02-25.46,35.81c-8.09,11.23-16.46,22.85-24.5,34.4l-0.07,0.1
			c-2.7,3.88-5.76,8.28-9.28,11.54c-3.43,3.17-6.7,5.84-12.05,6.36C626.8,268.86,626.03,268.91,625.27,268.91z M540.57,55.3
			c-1.18,0-2.35,0.17-3.49,0.53c-4.24,1.37-7.28,5.23-10.54,9.75c-7.98,11.1-16.14,22.28-24.03,33.09
			c-10,13.7-20.34,27.86-30.01,41.46l0,0c-2.77,3.9-1.72,9.42,0.55,13.17c2.68,4.42,7.04,7.66,11.27,10.8l123.82,91.98
			c6.5,4.83,12.82,9.09,18.81,8.18l0.12-0.02c3.66-0.35,5.97-1.95,9.47-5.19c3.16-2.92,6.07-7.11,8.64-10.8l0.07-0.1
			c8.06-11.59,16.44-23.22,24.54-34.46c8.45-11.72,17.18-23.84,25.3-35.58c1.23-2.69,0.99-6.26-0.66-9.59
			c-1.69-3.43-4.58-6.31-7.15-8.74c-9.56-9.03-20.49-16.9-31.06-24.51l-2.69-1.94c-19.09-13.76-34.74-25.55-54.04-40.71
			c-17.75-13.77-29.71-22.3-44.13-31.48C550.49,58.05,545.39,55.3,540.57,55.3z"/>
	</g>
	<g>
		<path class="st2" d="M289.82,226.36l-1.32-1.58c-14.6-17.42-29.7-35.43-42.19-54.51l-0.24-0.37l-0.09-0.43l2.37-0.54l1.74-1.14
			c12.35,18.86,27.36,36.77,41.88,54.08l1.32,1.58L289.82,226.36z"/>
	</g>
	<g>
		<path class="st2" d="M190.57,335.73c-9.15-7.93-62.35-53.76-72.03-61.9l2.91-3.46c9.7,8.16,62.92,54.02,72.08,61.95l0.22,0.19
			l0.31,0.45l-2.68,1.86L190.57,335.73z"/>
	</g>
	<g>
		<path class="st2" d="M311.91,198.71c-0.28-0.25-8.79-7.67-17.02-14.85l-15.58-13.59c-0.55-0.48-1.04-0.91-1.43-1.32l-0.04,0.04
			c-11.42-10.03-23.01-20.09-34.22-29.83l2.97-3.42c11.21,9.74,22.81,19.8,34.24,29.84l0.17,0.15c1.23,1.07,9.17,8,16.87,14.71
			l15.58,13.59c1.85,1.62,3.08,2.69,1.76,4.37l-3.56-2.79l1.78,1.4L311.91,198.71z"/>
	</g>
	<g>
		<path class="st2" d="M216.83,312.08c-1.21,0-3.09-1.44-11.78-9.12l2.9-3.47l11.61,9.18l-0.28,1.37c-0.27,1.28-1.21,1.72-1.6,1.85
			C217.38,312,217.13,312.08,216.83,312.08z"/>
	</g>
	<g>
		<path class="st2" d="M243.61,279.96c-3.45-3.02-6.87-6.06-10.3-9.1l3-3.38c3.42,3.03,6.84,6.07,10.28,9.08L243.61,279.96z"/>
	</g>
	<g>
		<path class="st2" d="M254.55,268.09c-4.24-6.07-9.78-12.13-15.14-17.99c-2.48-2.71-4.82-5.27-7.04-7.82
			c-4.72-5.45-17.11-10.19-29.09-14.77c-10.28-3.93-20-7.65-25.2-11.92l2.87-3.5c4.64,3.8,14.46,7.56,23.95,11.19
			c12.5,4.78,25.43,9.73,30.89,16.04c2.17,2.51,4.5,5.05,6.95,7.73c5.46,5.97,11.1,12.13,15.51,18.45L254.55,268.09z"/>
	</g>
</g>
</svg>
