<?xml version="1.0" encoding="utf-8"?>
<!-- Generator: Adobe Illustrator 24.0.0, SVG Export Plug-In . SVG Version: 6.00 Build 0)  -->
<svg version="1.1" id="Layer_1" xmlns="http://www.w3.org/2000/svg" xmlns:xlink="http://www.w3.org/1999/xlink" x="0px" y="0px"
	 viewBox="0 0 2000 2000" style="enable-background:new 0 0 2000 2000;" xml:space="preserve">
<style type="text/css">
	.st0{fill:#1E2B34;}
	.st1{fill:#CE8530;}
	.st2{fill:#8A9B65;}
</style>
<g>
	<path class="st0" d="M1511.91,1367.77c193.35-174.79,264.37-452.24,156.07-701.73c-126.37-291.11-454.46-446.47-765.9-378.99
		c-45.06-34.69-111.4-32.16-153.35,7.59l-40.56,38.44c-16.31,15.45-26.6,34.42-31.04,54.32C630.57,404,575.8,428.1,511.57,457.68
		l-49.86,25.23c-168.1,100.7-150.98,277.96,31.02,409.08l54.75,28.13c184.09,94.6,343.85,4.06,371.03-184.06
		c2.43-16.82,2.76-67.86,2.76-67.86c-0.72-46.61-2.72-87.12-6.31-122.06c3.29-2.5,6.5-5.15,9.55-8.04l40.56-38.44
		c30.48-28.88,40.17-69.96,29.18-106.65c232.78-22.81,464.42,101.25,558.5,317.97c98.68,227.32,14.22,483.24-188.18,618.1
		c-46.61-7.48-96.23-11.52-147.74-11.52c-269.38,0-487.75,110.33-487.75,246.44c0,136.1,218.37,246.44,487.75,246.44
		c269.38,0,487.75-110.33,487.75-246.44C1704.57,1483.92,1628.98,1412.79,1511.91,1367.77z"/>
	
		<ellipse transform="matrix(0.562 -0.8272 0.8272 0.562 -358.6336 814.3622)" class="st1" cx="589.57" cy="745.79" rx="180.93" ry="272.13"/>
	<path class="st2" d="M1062.27,1567.98v-57.95c0-9.03-7.32-16.35-16.35-16.35h-20.83c-9.03,0-16.35,7.32-16.35,16.35v57.95
		c-18.19,5.77-30.59,17.23-30.59,30.44c0,19.01,25.68,34.43,57.36,34.43c31.68,0,57.36-15.41,57.36-34.43
		C1092.86,1585.21,1080.46,1573.75,1062.27,1567.98z"/>
</g>
</svg>
