<?xml version="1.0" encoding="utf-8"?>
<!-- Generator: Adobe Illustrator 24.0.0, SVG Export Plug-In . SVG Version: 6.00 Build 0)  -->
<svg version="1.1" id="Layer_1" xmlns="http://www.w3.org/2000/svg" xmlns:xlink="http://www.w3.org/1999/xlink" x="0px" y="0px"
	 viewBox="0 0 2000 2000" style="enable-background:new 0 0 2000 2000;" xml:space="preserve">
<style type="text/css">
	.st0{fill:#5F9EA0;}
	.st1{fill:#DDDAD1;}
	.st2{fill:#8A9B65;}
</style>
<g>
	<path class="st0" d="M1485.72,1358.13c179.31-164.23,245.18-424.9,144.74-659.31c-117.2-273.51-421.47-419.48-710.3-356.08
		c-41.79-32.59-103.31-30.22-142.22,7.13l-37.62,36.12c-15.12,14.52-24.67,32.34-28.79,51.04c-43.18,15.59-93.98,38.23-153.54,66.03
		l-46.24,23.71c-155.9,94.61-140.02,261.16,28.77,384.35l50.77,26.43c170.73,88.88,318.89,3.82,344.09-172.93
		c2.25-15.8,2.56-63.76,2.56-63.76c-0.66-43.79-2.53-81.85-5.85-114.68c3.05-2.35,6.02-4.84,8.85-7.56l37.62-36.12
		c28.27-27.14,37.25-65.73,27.06-100.2c215.88-21.43,430.71,95.13,517.95,298.75c91.51,213.58,13.19,454.03-174.52,580.74
		c-43.22-7.02-89.25-10.83-137.01-10.83c-249.82,0-452.34,103.67-452.34,231.54s202.52,231.54,452.34,231.54
		s452.34-103.67,452.34-231.54C1664.39,1467.26,1594.29,1400.42,1485.72,1358.13z"/>
	
		<ellipse transform="matrix(0.575 -0.8182 0.8182 0.575 -365.1418 844.5913)" class="st1" cx="630.34" cy="773.74" rx="169.28" ry="253.44"/>
	<path class="st2" d="M1068.72,1546.23v-63.02c0-3.75-3.04-6.79-6.79-6.79h-36.07c-3.75,0-6.79,3.04-6.79,6.79v63.02
		c-16.87,5.42-28.37,16.19-28.37,28.6c0,17.87,23.82,32.35,53.2,32.35c29.38,0,53.2-14.48,53.2-32.35
		C1097.09,1562.42,1085.58,1551.66,1068.72,1546.23z"/>
</g>
</svg>
