<?xml version="1.0" encoding="utf-8"?>
<!-- Generator: Adobe Illustrator 24.0.0, SVG Export Plug-In . SVG Version: 6.00 Build 0)  -->
<svg version="1.1" id="Layer_1" xmlns="http://www.w3.org/2000/svg" xmlns:xlink="http://www.w3.org/1999/xlink" x="0px" y="0px"
	 viewBox="0 0 288 288" style="enable-background:new 0 0 288 288;" xml:space="preserve">
<style type="text/css">
	.st0{fill:white;}
	.st1{fill:#8A9B65;}
</style>
<g>
	<g>
		<path class="st0" d="M62.45,142.51c-2.52,0-4.09,1.3-4.09,3.4c0,5.32,13.34,2.43,13.34,12.78c0,4.36-3.33,7.63-9.4,7.63
			c-5.01,0-8.45-2.31-9.9-3.69l2.87-3.86c1.11,1.09,3.67,3.19,7.15,3.19c2.91,0,4.47-1.22,4.47-3.19c0-6.12-13.34-2.98-13.34-12.62
			c0-4.61,3.52-8.09,8.79-8.09c6.77,0,8.68,4.44,9.17,7.13l-4.36,1.17C67.04,144.86,65.66,142.51,62.45,142.51z"/>
		<path class="st0" d="M92.65,153.87v12.16h-4.66v-11.44c0-2.56-1.18-4.23-3.52-4.23c-2.98,0-4.32,2.89-4.32,5.41v10.27h-4.66
			v-29.59h4.59v13.12h0.11c0.96-2.01,2.71-3.56,5.62-3.56C90.28,145.99,92.65,149.3,92.65,153.87z"/>
		<path class="st0" d="M111.04,159.94l2.37,2.81c-1.38,1.97-4.01,3.52-7.65,3.52c-6,0-9.63-4.15-9.63-10.1
			c0-5.95,3.59-10.19,9.14-10.19c5.28,0,8.3,3.98,8.3,9.3c0,1.26-0.19,2.05-0.19,2.05h-12.54c0.42,2.93,2.26,4.95,5.43,4.95
			C108.86,162.29,110.27,160.95,111.04,159.94z M100.83,154.45h8.33c-0.04-2.6-1.53-4.48-3.9-4.48
			C102.93,149.97,101.25,151.69,100.83,154.45z"/>
		<path class="st0" d="M117.23,136.43h4.63v29.59h-4.63V136.43z"/>
		<path class="st0" d="M132.67,146.24h5.81v3.94h-5.81v15.84h-4.66v-15.84h-2.68v-3.94h2.68v-1.76c0-5.16,3.1-8.3,7.42-8.3
			c2.33,0,3.98,0.88,4.2,1.05l-1.41,4.07c-0.27-0.17-1.07-0.84-2.26-0.84c-2.1,0-3.29,1.55-3.29,3.94V146.24z"/>
		<path class="st0" d="M149.87,142.51c-2.52,0-4.09,1.3-4.09,3.4c0,5.32,13.34,2.43,13.34,12.78c0,4.36-3.33,7.63-9.4,7.63
			c-5.01,0-8.45-2.31-9.9-3.69l2.87-3.86c1.11,1.09,3.67,3.19,7.15,3.19c2.91,0,4.47-1.22,4.47-3.19c0-6.12-13.34-2.98-13.34-12.62
			c0-4.61,3.52-8.09,8.79-8.09c6.77,0,8.68,4.44,9.17,7.13l-4.36,1.17C154.46,144.86,153.08,142.51,149.87,142.51z"/>
		<path class="st0" d="M180.07,153.87v12.16h-4.66v-11.44c0-2.56-1.18-4.23-3.52-4.23c-2.98,0-4.32,2.89-4.32,5.41v10.27h-4.66
			v-29.59h4.59v13.12h0.11c0.96-2.01,2.71-3.56,5.62-3.56C177.7,145.99,180.07,149.3,180.07,153.87z"/>
		<path class="st0" d="M201.86,165.94c0,0-1.03,0.29-2.29,0.29c-2.33,0-3.63-1.01-3.94-3.14c-0.54,1.13-2.06,3.19-5.93,3.19
			c-3.94,0-6.12-2.18-6.12-5.45c0-4.74,4.4-6.12,11.51-6.25h0.31v-0.96c0-2.22-1.22-3.69-3.63-3.69c-2.22,0-3.44,0.96-3.44,2.6
			c0,0.34,0.08,0.59,0.15,0.8l-4.13,0.75c0,0-0.23-0.8-0.23-1.84c0-3.73,2.94-6.25,7.8-6.25c5.16,0,8.03,2.93,8.03,7.75v6.96
			c0,1.01,0.31,1.34,1.07,1.34c0.23,0,0.46-0.04,0.65-0.08L201.86,165.94z M195.4,159.06v-1.68h-0.31
			c-4.89,0.08-6.96,0.92-6.96,2.89c0,1.34,0.99,2.1,2.79,2.1C193.76,162.38,195.4,160.74,195.4,159.06z"/>
		<path class="st0" d="M216.84,146.49l-1.19,4.99c-0.54-0.42-1.15-0.63-1.95-0.63c-2.03,0-3.9,1.8-3.9,5.36v9.81h-4.66v-19.78
			l3.59-0.17c0.34,1.38,0.57,3.6,0.57,4.44h0.11c0.69-2.51,2.18-4.53,4.85-4.53C215.24,145.99,216.08,146.15,216.84,146.49z"/>
		<path class="st0" d="M232.67,159.94l2.37,2.81c-1.38,1.97-4.01,3.52-7.65,3.52c-6,0-9.63-4.15-9.63-10.1
			c0-5.95,3.59-10.19,9.14-10.19c5.28,0,8.3,3.98,8.3,9.3c0,1.26-0.19,2.05-0.19,2.05h-12.54c0.42,2.93,2.26,4.95,5.43,4.95
			C230.49,162.29,231.9,160.95,232.67,159.94z M222.46,154.45h8.33c-0.04-2.6-1.53-4.48-3.9-4.48
			C224.56,149.97,222.88,151.69,222.46,154.45z"/>
	</g>
	<g>
		<rect x="51.48" y="169.88" class="st1" width="185.05" height="3.76"/>
		<path class="st1" d="M71.69,107.8c0-0.73-4.53-1.33-10.11-1.33s-10.11,0.59-10.11,1.33v23.87h20.22V107.8z"/>
		<path class="st1" d="M93.1,105.48c0-0.8-3.99-1.46-8.91-1.46s-8.91,0.65-8.91,1.46v26.19H93.1V105.48z"/>
		<path class="st1" d="M126,96.21c0-1.09-2.61-1.97-5.83-1.97c-3.22,0-5.83,0.88-5.83,1.97v35.46H126V96.21z"/>
		<path class="st1" d="M139.97,102.93c0-0.88-2.38-1.6-5.31-1.6c-2.93,0-5.31,0.71-5.31,1.6v28.74h10.62V102.93z"/>
		<path class="st1" d="M158.9,105.48c0-0.8-3.45-1.46-7.71-1.46c-4.26,0-7.71,0.65-7.71,1.46v26.19h15.42V105.48z"/>
		<path class="st1" d="M179.2,98.46c0-1.02-3.76-1.85-8.4-1.85c-4.64,0-8.4,0.83-8.4,1.85v33.21h16.79V98.46z"/>
		<path class="st1" d="M201.61,105.48c0-0.8-4.22-1.46-9.42-1.46c-5.2,0-9.42,0.65-9.42,1.46v26.19h18.85V105.48z"/>
		<path class="st1" d="M217.5,100.8c0-0.96-2.76-1.74-6.17-1.74c-3.41,0-6.17,0.78-6.17,1.74v31.29h12.34V100.8z"/>
		<path class="st1" d="M236.52,111.93c0-0.62-3.38-1.12-7.54-1.12c-4.16,0-7.54,0.5-7.54,1.12v20.17h15.08V111.93z"/>
		<path class="st1" d="M111.27,109.42c0-0.68-3.3-1.24-7.37-1.24s-7.37,0.55-7.37,1.24v22.25h14.74V109.42z"/>
	</g>
</g>
</svg>
